<?xml version="1.0" encoding="UTF-8"?><svg id="Calque_1" xmlns="http://www.w3.org/2000/svg" viewBox="0 0 425.81 62.15"><defs><style>.cls-1{fill:#12120d;}</style></defs><path d="M7.66,28.94h18.05c8.51,0,12.77-4.25,12.77-11.15,0-7.41-3.41-11.15-12.34-11.15H7.66v22.3ZM0,0h28.43C39.16,0,46.4,6.72,46.4,16.69c0,7.41-3.24,12.68-10.56,15.07v.26c6.21,2.21,8.17,6.47,8.77,15.49.68,9.79,1.7,12.26,2.81,13.03v.34h-8.26c-1.28-1.11-1.53-3.4-2.21-13.62-.6-8.94-4.17-12.09-12.34-12.09H7.66v25.71H0V0Z"/><path d="M87.18,38.91c0-9.71-4.77-17.45-14.13-17.45s-14.22,7.75-14.22,17.45,4.85,17.37,14.22,17.37,14.13-7.66,14.13-17.37M51.76,38.91c0-12.77,8.18-23.16,21.29-23.16s21.2,10.39,21.2,23.16-8,23.16-21.2,23.16-21.29-10.39-21.29-23.16"/><path d="M134.01,39.08c0-9.88-4-17.37-12.34-17.37-9.62,0-14.05,7.83-14.05,17.37s4.6,17.28,13.96,17.28c8.43,0,12.43-7.32,12.43-17.28M108.21,55.08h-.17v5.79h-6.9V0h6.9v23.15h.17c3.32-4.51,7.75-7.32,14.13-7.32,11.15,0,18.73,8.52,18.73,23.16s-7.07,23.16-18.98,23.16c-5.96,0-10.3-2.13-13.88-7.07"/><path d="M152.74,35.33h26.48c-.43-8.77-4.94-14.13-12.85-14.13s-12.6,6.13-13.62,14.13M145.5,38.91c0-12.77,8.34-23.16,20.86-23.16,13.2,0,20.26,10.22,20.26,24.77h-34.05c.51,8.94,5.36,15.75,14.22,15.75,6.39,0,10.64-3.07,12.17-9.02h6.73c-2.04,9.45-8.94,14.81-18.9,14.81-13.45,0-21.29-10.39-21.29-23.16"/><path d="M200.24,24.18h.17c2.64-4.25,7.24-7.83,13.11-7.83,1.28,0,1.96.17,2.81.51v6.64h-.26c-1.02-.34-1.7-.43-3.06-.43-6.81,0-12.77,5.11-12.77,13.37v24.43h-6.9V16.86h6.9v7.32Z"/><path d="M219.74,16.86h6.39V2.98h6.9v13.88h8.51v5.62h-8.51v28.6c0,3.07,1.62,4.09,4.43,4.09,1.36,0,2.89-.34,3.66-.6h.26v5.96c-1.62.34-3.49.6-5.53.6-5.62,0-9.7-2.3-9.7-8.51v-30.14h-6.39v-5.62Z"/><path d="M245.88,46.57h7.07c.93,7.66,6.05,9.79,12.6,9.79,7.23,0,10.22-3.15,10.22-7.24,0-4.94-3.41-6.21-11.49-7.92-8.68-1.79-16.43-3.58-16.43-13.19,0-7.32,5.62-12.09,15.83-12.09,10.9,0,16.26,5.19,17.28,13.79h-7.07c-.68-5.79-3.83-8.34-10.39-8.34s-8.85,2.81-8.85,6.3c0,4.77,4.25,5.7,11.83,7.24,8.86,1.79,16.26,3.75,16.26,13.88,0,8.85-7.24,13.37-17.37,13.37-12.09,0-18.81-5.71-19.5-15.58"/><path d="M323.18,38.91c0-9.71-4.77-17.45-14.13-17.45s-14.22,7.75-14.22,17.45,4.85,17.37,14.22,17.37,14.13-7.66,14.13-17.37M287.76,38.91c0-12.77,8.17-23.16,21.28-23.16s21.2,10.39,21.2,23.16-8,23.16-21.2,23.16-21.28-10.39-21.28-23.16"/><path d="M344.04,22.65h.17c3.15-4.17,7.58-6.81,13.96-6.81,9.19,0,14.81,5.02,14.81,14.13v30.9h-6.9v-30.31c0-5.7-3.74-8.94-9.96-8.94-6.98,0-12.09,4.94-12.09,12.18v27.07h-6.9V16.86h6.9v5.79Z"/><path class="cls-1" d="M408.94,23.19h-6.29v-6.29h6.29v6.29ZM411.5,16.93h0c-1.73-.01-2.55-.83-2.57-2.58V.05h-6.26v14.3c-.02,1.75-.84,2.56-2.57,2.58h-14.31v6.26h14.31c1.73.01,2.55.83,2.57,2.58v14.3h6.26v-14.3c.02-1.75.84-2.57,2.57-2.58h14.31v-6.26h-14.3Z"/></svg>